<?xml version="1.0" standalone="no"?>
<!DOCTYPE svg PUBLIC "-//W3C//DTD SVG 20010904//EN"
 "http://www.w3.org/TR/2001/REC-SVG-20010904/DTD/svg10.dtd">
<svg version="1.0" xmlns="http://www.w3.org/2000/svg"
 width="800.000000pt" height="800.000000pt" viewBox="0 0 800.000000 800.000000"
 preserveAspectRatio="xMidYMid meet">
<metadata>
Created by potrace 1.11, written by Peter Selinger 2001-2013
</metadata>
<g transform="translate(0.000000,800.000000) scale(0.100000,-0.100000)"
fill="#000000" stroke="none">
<path d="M3778 7996 c-1 -2 -43 -6 -93 -10 -106 -7 -155 -13 -250 -27 -38 -6
-86 -12 -105 -15 -19 -2 -78 -14 -130 -25 -52 -11 -103 -22 -114 -24 -130 -27
-386 -107 -556 -175 -404 -159 -796 -396 -1136 -685 -98 -83 -376 -364 -455
-460 -220 -267 -375 -504 -524 -803 -68 -136 -201 -457 -211 -506 -2 -11 -8
-32 -13 -46 -37 -95 -113 -410 -136 -560 -4 -25 -9 -54 -11 -65 -46 -245 -53
-803 -13 -1090 17 -126 20 -145 34 -223 128 -703 450 -1372 915 -1904 99 -113
335 -346 440 -434 491 -411 1021 -679 1635 -829 183 -45 195 -47 322 -65 39
-6 80 -12 90 -14 10 -2 50 -7 88 -11 39 -4 86 -9 105 -12 64 -9 543 -11 635
-2 186 17 212 20 275 30 36 6 81 12 100 15 19 2 78 14 130 25 52 11 104 22
114 25 52 10 190 48 261 70 44 14 87 27 95 29 15 4 193 70 265 100 208 85 481
232 683 367 92 61 294 211 328 243 6 5 41 35 77 65 93 78 349 338 438 445 346
416 582 845 750 1360 31 93 94 333 104 395 3 19 10 51 15 70 4 19 11 57 15 83
3 27 8 59 11 70 47 242 54 783 13 1092 -50 387 -146 742 -292 1081 -52 120
-135 289 -184 372 -24 41 -43 76 -43 78 0 19 -272 413 -321 464 -8 9 -30 36
-49 60 -58 75 -98 119 -255 275 -166 165 -208 205 -275 256 -24 19 -51 40 -60
48 -31 30 -239 179 -330 238 -420 269 -908 465 -1385 557 -44 8 -90 17 -102
20 -11 2 -43 7 -70 11 -26 4 -57 8 -69 10 -11 2 -52 6 -90 10 -38 4 -85 9
-104 12 -38 5 -556 13 -562 9z"/>
</g>
</svg>
